# xmcd
#
# Track frame offsets:
#	150
#	21617
#	47347
#	67020
#	87147
#	106777
#	131710
#	159327
#	179982
#	209980
#	233420
#	253342
#
# Disc length: 3735 seconds
#
# Revision: 2
# Processed by: cddbd v1.5.1PL0 Copyright (c) Steve Scherf et al.
# Submitted via: audiograbber 1.83.01
#
DISCID=ae0e950c
DTITLE=Various Artist - Slow Jams On The Jazz Tip - Vol. 1
DYEAR=1997
DGENRE=Jazz
TTITLE0=Najee - Sweet Love
TTITLE1=Pieces Of A Dream - Rising To The Top
TTITLE2=Paul Hardcastle - Rain Forest
TTITLE3=Angela Bofill - I Just Wanna Stop
TTITLE4=Perri - Jaco Two
TTITLE5=Dianne Reeves - Better Days
TTITLE6=Norman Connors (Feat. Spencer Harrison) - I Am Your Melody
TTITLE7=Ramsey Lewis and Nancy Wilson - The Two Of Us
TTITLE8=Regina Belle - So Many Tears
TTITLE9=George Howard - Piano In The Dark
TTITLE10=101 North - So Easy
TTITLE11=Grover Washington, Jr. and Patti LaBelle - The Best Is Yet To Come
EXTD=
EXTT0=
EXTT1=
EXTT2=
EXTT3=
EXTT4=
EXTT5=
EXTT6=
EXTT7=
EXTT8=
EXTT9=
EXTT10=
EXTT11=
PLAYORDER=
